<mxfile host="app.diagrams.net" modified="2024-01-15T11:25:00.000Z" agent="5.0" etag="example" version="22.0.0">
  <diagram name="FOR Döngüsü Örnek" id="flowchart">
    <mxGraphModel dx="1422" dy="794" grid="1" gridSize="10" guides="1" tooltips="1" connect="1" arrows="1" fold="1" page="1" pageScale="1" pageWidth="827" pageHeight="1169" math="0" shadow="0">
      <root>
        <mxCell id="0"/>
        <mxCell id="1" parent="0"/>
        
        <!-- BAŞLA -->
        <mxCell id="start" value="BAŞLA" style="ellipse;whiteSpace=wrap;html=1;fillColor=#d5e8d4;strokeColor=#82b366;" vertex="1" parent="1">
          <mxGeometry x="340" y="40" width="120" height="60" as="geometry"/>
        </mxCell>
        
        <!-- i = 1 -->
        <mxCell id="init" value="i ← 1" style="rounded=0;whiteSpace=wrap;html=1;fillColor=#fff2cc;strokeColor=#d6b656;" vertex="1" parent="1">
          <mxGeometry x="340" y="140" width="120" height="60" as="geometry"/>
        </mxCell>
        
        <!-- i <= 10 kontrol -->
        <mxCell id="condition" value="i <= 10 ?" style="rhombus;whiteSpace=wrap;html=1;fillColor=#e1d5e7;strokeColor=#9673a6;" vertex="1" parent="1">
          <mxGeometry x="340" y="240" width="120" height="80" as="geometry"/>
        </mxCell>
        
        <!-- i yazdır -->
        <mxCell id="print" value="i yazdır" style="shape=parallelogram;perimeter=parallelogramPerimeter;whiteSpace=wrap;html=1;fixedSize=1;fillColor=#dae8fc;strokeColor=#6c8ebf;" vertex="1" parent="1">
          <mxGeometry x="340" y="380" width="120" height="60" as="geometry"/>
        </mxCell>
        
        <!-- i++ -->
        <mxCell id="increment" value="i ← i + 1" style="rounded=0;whiteSpace=wrap;html=1;fillColor=#fff2cc;strokeColor=#d6b656;" vertex="1" parent="1">
          <mxGeometry x="340" y="480" width="120" height="60" as="geometry"/>
        </mxCell>
        
        <!-- BITIR -->
        <mxCell id="end" value="BITIR" style="ellipse;whiteSpace=wrap;html=1;fillColor=#f8cecc;strokeColor=#b85450;" vertex="1" parent="1">
          <mxGeometry x="560" y="250" width="120" height="60" as="geometry"/>
        </mxCell>
        
        <!-- Connections -->
        <mxCell id="edge1" edge="1" parent="1" source="start" target="init">
          <mxGeometry relative="1" as="geometry"/>
        </mxCell>
        <mxCell id="edge2" edge="1" parent="1" source="init" target="condition">
          <mxGeometry relative="1" as="geometry"/>
        </mxCell>
        <mxCell id="edge3" edge="1" parent="1" source="condition" target="print">
          <mxGeometry relative="1" as="geometry"/>
          <mxCell id="labelYes" value="EVET" style="edgeLabel;html=1;align=center;verticalAlign=middle;" vertex="1" connectable="0" parent="edge3">
            <mxGeometry relative="1" as="geometry"/>
          </mxCell>
        </mxCell>
        <mxCell id="edge4" edge="1" parent="1" source="condition" target="end">
          <mxGeometry relative="1" as="geometry"/>
          <mxCell id="labelNo" value="HAYIR" style="edgeLabel;html=1;align=center;verticalAlign=middle;" vertex="1" connectable="0" parent="edge4">
            <mxGeometry relative="1" as="geometry"/>
          </mxCell>
        </mxCell>
        <mxCell id="edge5" edge="1" parent="1" source="print" target="increment">
          <mxGeometry relative="1" as="geometry"/>
        </mxCell>
        <mxCell id="edge6" edge="1" parent="1" source="increment" target="condition">
          <mxGeometry relative="1" as="geometry">
            <Array as="points">
              <mxPoint x="280" y="510"/>
              <mxPoint x="280" y="280"/>
            </Array>
          </mxGeometry>
        </mxCell>
        
      </root>
    </mxGraphModel>
  </diagram>
</mxfile>